<svg width="32" height="24" viewBox="0 0 32 24" fill="none" xmlns="http://www.w3.org/2000/svg">
<rect width="32" height="24" rx="4" fill="#F6F3EF"/>
<path d="M18.5 15.5V17.75C18.5 18.1642 18.1642 18.5 17.75 18.5H11.25C10.8358 18.5 10.5 18.1642 10.5 17.75V9.25C10.5 8.83579 10.8358 8.5 11.25 8.5H12.5C12.8407 8.5 13.1748 8.5284 13.5 8.58296M18.5 15.5H20.75C21.1642 15.5 21.5 15.1642 21.5 14.75V11.5C21.5 8.527 19.3377 6.05904 16.5 5.58296C16.1748 5.5284 15.8407 5.5 15.5 5.5H14.25C13.8358 5.5 13.5 5.83579 13.5 6.25V8.58296M18.5 15.5H14.25C13.8358 15.5 13.5 15.1642 13.5 14.75V8.58296M21.5 13V11.75C21.5 10.5074 20.4926 9.5 19.25 9.5H18.25C17.8358 9.5 17.5 9.16421 17.5 8.75V7.75C17.5 6.50736 16.4926 5.5 15.25 5.5H14.5" stroke="#343434" stroke-linecap="round" stroke-linejoin="round"/>
</svg>
