<svg width="44" height="44" viewBox="0 0 44 44" fill="none" xmlns="http://www.w3.org/2000/svg">
<rect width="44" height="44" rx="22" fill="#F2F2F2"/>
<rect x="8" y="8" width="28" height="28" rx="14" fill="#8BD297"/>
<path fill-rule="evenodd" clip-rule="evenodd" d="M22 30C26.4183 30 30 26.4183 30 22C30 17.5817 26.4183 14 22 14C17.5817 14 14 17.5817 14 22C14 26.4183 17.5817 30 22 30ZM22.75 18.75C22.75 18.3358 22.4142 18 22 18C21.5858 18 21.25 18.3358 21.25 18.75V21.25H18.75C18.3358 21.25 18 21.5858 18 22C18 22.4142 18.3358 22.75 18.75 22.75H21.25V25.25C21.25 25.6642 21.5858 26 22 26C22.4142 26 22.75 25.6642 22.75 25.25V22.75H25.25C25.6642 22.75 26 22.4142 26 22C26 21.5858 25.6642 21.25 25.25 21.25H22.75V18.75Z" fill="white"/>
</svg>
