<svg width="17" height="17" viewBox="0 0 256 256" fill="none" xmlns="http://www.w3.org/2000/svg">
<path d="M233.444 39.9979C189.761 39.9979 156.296 27.5186 127.995 0C99.6999 27.5186 66.2343 39.9979 22.5569 39.9979C22.5569 111.661 7.72578 214.314 127.995 256C248.264 214.314 233.444 111.661 233.444 39.9979Z" fill="#F7941E"/>
<path d="M186.252 78.4542C186.252 83.8499 181.88 88.2215 176.484 88.2215H138.94V186.925C138.94 193.063 133.96 198.043 127.822 198.043C121.683 198.043 116.704 193.063 116.704 186.925V88.2215H79.1593C73.7637 88.2215 69.392 83.8499 69.392 78.4542C69.392 73.0585 73.7637 68.6868 79.1593 68.6868H176.479C181.874 68.6868 186.252 73.0585 186.252 78.4542Z" fill="white"/>
</svg>
