<svg width="785" height="249" viewBox="0 0 785 249" fill="none" xmlns="http://www.w3.org/2000/svg">
<path d="M157.291 186.522H151.714C151.332 186.522 151.007 186.79 150.948 187.155L148.692 200.986C148.652 201.231 148.826 201.461 149.079 201.499C149.103 201.503 149.127 201.505 149.152 201.505H151.815C152.197 201.505 152.521 201.236 152.581 200.871L153.189 197.141C153.248 196.777 153.573 196.508 153.955 196.507H155.72C159.395 196.507 161.515 194.788 162.069 191.381C162.319 189.89 162.08 188.719 161.358 187.899C160.565 186.999 159.159 186.522 157.292 186.522L157.291 186.522ZM157.935 191.574C157.63 193.509 156.1 193.509 154.622 193.509H153.78L154.37 189.895C154.406 189.676 154.601 189.515 154.829 189.515H155.215C156.222 189.515 157.172 189.515 157.663 190.071C157.956 190.402 158.046 190.894 157.934 191.574H157.935ZM173.965 191.511H171.294C171.065 191.511 170.871 191.672 170.835 191.891L170.717 192.613L170.53 192.351C169.952 191.54 168.662 191.269 167.375 191.269C164.423 191.269 161.902 193.431 161.411 196.463C161.156 197.975 161.519 199.422 162.406 200.431C163.22 201.358 164.385 201.744 165.771 201.744C168.149 201.744 169.468 200.266 169.468 200.266L169.349 200.984C169.308 201.229 169.481 201.459 169.734 201.498C169.759 201.502 169.783 201.504 169.807 201.504H172.213C172.595 201.504 172.92 201.235 172.979 200.87L174.422 192.03C174.463 191.786 174.291 191.556 174.038 191.517C174.014 191.513 173.99 191.511 173.965 191.511ZM170.242 196.538C169.984 198.014 168.773 199.004 167.228 199.004C166.452 199.004 165.832 198.764 165.434 198.308C165.039 197.855 164.889 197.211 165.015 196.493C165.256 195.03 166.487 194.007 168.008 194.007C168.767 194.007 169.383 194.251 169.79 194.711C170.197 195.175 170.358 195.823 170.241 196.538L170.242 196.538ZM188.191 191.511H185.507C185.25 191.512 185.01 191.635 184.865 191.84L181.163 197.113L179.594 192.046C179.495 191.729 179.193 191.511 178.85 191.511H176.212C175.955 191.511 175.747 191.711 175.746 191.96C175.746 192.01 175.754 192.059 175.771 192.106L178.727 200.496L175.948 204.29C175.799 204.492 175.848 204.773 176.058 204.916C176.136 204.971 176.231 204.999 176.327 204.999H179.008C179.262 204.999 179.5 204.88 179.645 204.678L188.573 192.217C188.719 192.013 188.667 191.733 188.456 191.591C188.378 191.539 188.286 191.511 188.191 191.511L188.191 191.511Z" fill="#253B80"/>
<path d="M197.078 186.522H191.499C191.118 186.522 190.794 186.791 190.734 187.155L188.478 200.985C188.438 201.23 188.611 201.46 188.864 201.499C188.888 201.502 188.912 201.504 188.937 201.504H191.8C192.067 201.504 192.293 201.316 192.335 201.061L192.975 197.141C193.034 196.776 193.359 196.508 193.74 196.507H195.505C199.18 196.507 201.3 194.788 201.855 191.381C202.105 189.89 201.864 188.719 201.143 187.899C200.351 186.998 198.945 186.522 197.079 186.522L197.078 186.522ZM197.722 191.574C197.417 193.509 195.888 193.509 194.408 193.509H193.567L194.159 189.895C194.194 189.676 194.388 189.515 194.617 189.515H195.003C196.009 189.515 196.96 189.515 197.451 190.071C197.744 190.402 197.832 190.894 197.721 191.574H197.722ZM213.751 191.511H211.082C210.853 191.51 210.658 191.672 210.623 191.891L210.505 192.613L210.318 192.351C209.739 191.54 208.451 191.269 207.164 191.269C204.212 191.269 201.692 193.431 201.2 196.463C200.946 197.975 201.307 199.422 202.195 200.43C203.01 201.358 204.173 201.744 205.559 201.744C207.938 201.744 209.256 200.266 209.256 200.266L209.137 200.983C209.096 201.229 209.269 201.459 209.523 201.498C209.547 201.502 209.572 201.504 209.597 201.504H212.002C212.384 201.504 212.708 201.235 212.767 200.87L214.212 192.03C214.251 191.785 214.077 191.555 213.822 191.517C213.799 191.513 213.775 191.511 213.751 191.512V191.511ZM210.028 196.538C209.772 198.014 208.559 199.004 207.014 199.004C206.24 199.004 205.618 198.764 205.22 198.308C204.825 197.855 204.677 197.211 204.801 196.493C205.044 195.03 206.273 194.007 207.794 194.007C208.553 194.007 209.169 194.251 209.576 194.711C209.984 195.175 210.145 195.823 210.027 196.538L210.028 196.538ZM216.9 186.902L214.611 200.985C214.571 201.23 214.743 201.46 214.996 201.499C215.02 201.502 215.045 201.504 215.069 201.504H217.37C217.753 201.504 218.077 201.236 218.136 200.871L220.394 187.041C220.434 186.796 220.261 186.566 220.007 186.527C219.983 186.523 219.959 186.521 219.935 186.521H217.358C217.129 186.522 216.935 186.683 216.9 186.902H216.9Z" fill="#179BD7"/>
<path d="M125.527 204.192L125.954 201.572L125.004 201.551H120.466L123.619 182.219C123.639 182.097 123.748 182.007 123.875 182.008H131.526C134.066 182.008 135.819 182.519 136.734 183.528C137.163 184.001 137.436 184.495 137.568 185.039C137.707 185.61 137.709 186.292 137.574 187.125L137.564 187.186V187.719L137.993 187.954C138.321 188.114 138.615 188.331 138.862 188.594C139.229 188.999 139.466 189.513 139.567 190.123C139.671 190.75 139.636 191.496 139.466 192.34C139.271 193.312 138.954 194.158 138.527 194.85C138.15 195.471 137.643 196.008 137.039 196.428C136.471 196.817 135.796 197.113 135.034 197.302C134.295 197.489 133.453 197.582 132.528 197.582H131.933C131.507 197.582 131.094 197.731 130.769 197.997C130.445 198.265 130.23 198.636 130.162 199.044L130.118 199.28L129.364 203.898L129.33 204.067C129.321 204.121 129.305 204.148 129.283 204.166C129.261 204.183 129.233 204.193 129.204 204.194H125.528L125.527 204.192Z" fill="#253B80"/>
<path d="M138.399 187.247C138.376 187.388 138.35 187.532 138.321 187.681C137.312 192.689 133.86 194.42 129.452 194.42H127.207C126.668 194.42 126.214 194.798 126.13 195.312L124.981 202.36L124.655 204.357C124.605 204.66 124.819 204.945 125.133 204.993C125.162 204.997 125.192 204.999 125.222 204.999H129.203C129.675 204.999 130.075 204.668 130.15 204.219L130.189 204.023L130.938 199.424L130.986 199.171C131.059 198.72 131.461 198.389 131.932 198.389H132.528C136.385 198.389 139.404 196.875 140.287 192.493C140.656 190.663 140.465 189.134 139.489 188.06C139.18 187.727 138.811 187.452 138.399 187.247V187.247Z" fill="#179BD7"/>
<path d="M137.344 186.84C137.022 186.749 136.694 186.679 136.363 186.629C135.708 186.532 135.046 186.485 134.384 186.489H128.387C127.916 186.489 127.514 186.821 127.442 187.272L126.166 195.084L126.129 195.312C126.212 194.798 126.669 194.419 127.207 194.419H129.451C133.86 194.419 137.311 192.688 138.321 187.68C138.351 187.532 138.376 187.387 138.399 187.246C138.133 187.111 137.855 186.998 137.569 186.908C137.494 186.884 137.419 186.861 137.343 186.84H137.344Z" fill="#222D65"/>
<path d="M127.442 187.272C127.514 186.821 127.915 186.488 128.387 186.49H134.384C135.094 186.49 135.757 186.535 136.363 186.63C136.772 186.692 137.176 186.785 137.571 186.908C137.868 187.004 138.145 187.116 138.4 187.246C138.7 185.395 138.398 184.135 137.363 182.994C136.221 181.738 134.162 181.2 131.526 181.2H123.876C123.337 181.2 122.878 181.579 122.795 182.093L119.608 201.624C119.551 201.971 119.796 202.297 120.155 202.352C120.189 202.357 120.223 202.36 120.257 202.36H124.98L126.166 195.084L127.442 187.272V187.272Z" fill="#253B80"/>
<path d="M633.345 174.743L627.634 176.005V171.238L633.345 170V174.743Z" fill="#6461FC"/>
<path fill-rule="evenodd" clip-rule="evenodd" d="M645.221 177.383C642.991 177.383 641.558 178.458 640.762 179.206L640.466 177.757H635.46V205L641.148 203.762L641.171 197.15C641.99 197.757 643.196 198.621 645.198 198.621C649.271 198.621 652.98 195.257 652.98 187.85C652.957 181.075 649.203 177.383 645.221 177.383ZM643.856 193.481C642.514 193.481 641.717 192.99 641.171 192.383L641.148 183.715C641.74 183.037 642.559 182.57 643.856 182.57C645.926 182.57 647.36 184.953 647.36 188.014C647.36 191.145 645.949 193.481 643.856 193.481Z" fill="#6461FC"/>
<path fill-rule="evenodd" clip-rule="evenodd" d="M670.909 188.084C670.909 182.103 668.088 177.383 662.695 177.383C657.28 177.383 654.004 182.103 654.004 188.037C654.004 195.07 657.872 198.621 663.423 198.621C666.131 198.621 668.179 197.991 669.726 197.103V192.43C668.179 193.224 666.404 193.715 664.151 193.715C661.944 193.715 659.988 192.921 659.737 190.164H670.863C670.863 190.035 670.872 189.742 670.881 189.405C670.894 188.947 670.909 188.407 670.909 188.084ZM659.669 185.864C659.669 183.224 661.239 182.126 662.672 182.126C664.06 182.126 665.539 183.224 665.539 185.864H659.669Z" fill="#6461FC"/>
<path d="M627.633 177.78H633.344V198.224H627.633V177.78Z" fill="#6461FC"/>
<path d="M621.149 177.78L621.513 179.509C622.856 176.986 625.518 177.5 626.246 177.78V183.154C625.541 182.897 623.265 182.57 621.923 184.369V198.224H616.235V177.78H621.149Z" fill="#6461FC"/>
<path d="M610.137 172.71L604.585 173.925L604.562 192.64C604.562 196.098 607.088 198.645 610.455 198.645C612.321 198.645 613.686 198.294 614.437 197.874V193.131C613.709 193.435 610.114 194.509 610.114 191.051V182.757H614.437V177.78H610.114L610.137 172.71Z" fill="#6461FC"/>
<path d="M596.69 182.453C595.484 182.453 594.756 182.804 594.756 183.715C594.756 184.71 596.009 185.147 597.564 185.69C600.098 186.576 603.434 187.741 603.448 192.056C603.448 196.238 600.194 198.645 595.462 198.645C593.505 198.645 591.366 198.248 589.25 197.313V191.752C591.161 192.827 593.573 193.621 595.462 193.621C596.736 193.621 597.646 193.271 597.646 192.196C597.646 191.094 596.288 190.59 594.648 189.982C592.15 189.056 589 187.888 589 183.995C589 179.86 592.072 177.383 596.69 177.383C598.579 177.383 600.445 177.687 602.333 178.458V183.949C600.604 182.991 598.42 182.453 596.69 182.453Z" fill="#6461FC"/>
<path fill-rule="evenodd" clip-rule="evenodd" d="M203.921 24.3872V15.2378H208.643C210.578 15.2378 212.211 14.5894 213.543 13.3106L213.862 12.9864C216.294 10.3389 216.134 6.21443 213.543 3.76498C212.247 2.46822 210.471 1.7658 208.643 1.80182H201.062V24.3872H203.921ZM203.921 12.464V4.57533H208.715C209.745 4.57533 210.721 4.97156 211.449 5.69199C212.994 7.20488 213.029 9.72638 211.538 11.2933C210.81 12.0678 209.78 12.5 208.715 12.464H203.921Z" fill="#3C4043"/>
<path fill-rule="evenodd" clip-rule="evenodd" d="M227.194 10.1406C225.969 9.00598 224.301 8.42964 222.188 8.42964C219.472 8.42964 217.431 9.43823 216.081 11.4374L218.602 13.0404C219.525 11.6716 220.786 10.9872 222.383 10.9872C223.395 10.9872 224.372 11.3654 225.135 12.0498C225.881 12.6982 226.307 13.6347 226.307 14.6253V15.2917C225.206 14.6793 223.821 14.3551 222.117 14.3551C220.129 14.3551 218.531 14.8234 217.342 15.778C216.152 16.7326 215.549 17.9933 215.549 19.5963C215.513 21.0551 216.135 22.4419 217.235 23.3785C218.354 24.3871 219.774 24.8914 221.443 24.8914C223.413 24.8914 224.975 24.0089 226.165 22.2438H226.289V24.3871H229.023V14.8594C229.023 12.8603 228.419 11.2753 227.194 10.1406ZM219.437 21.5413C218.851 21.1091 218.496 20.4067 218.496 19.6502C218.496 18.8037 218.886 18.1013 219.65 17.543C220.431 16.9846 221.408 16.6965 222.562 16.6965C224.16 16.6784 225.403 17.0387 226.29 17.7591C226.29 18.9838 225.811 20.0464 224.87 20.947C224.018 21.8115 222.864 22.2978 221.656 22.2978C220.857 22.3158 220.076 22.0456 219.437 21.5413Z" fill="#3C4043"/>
<path d="M235.165 31.177L244.716 8.93386H241.609L237.189 20.0284H237.136L232.609 8.93386H229.502L235.769 23.3964L232.218 31.177H235.165Z" fill="#3C4043"/>
<path d="M194.053 13.2567C194.053 12.3742 193.982 11.4916 193.84 10.6271H181.786V15.6161H188.692C188.408 17.219 187.485 18.6599 186.136 19.5604V22.8023H190.254C192.668 20.551 194.053 17.219 194.053 13.2567Z" fill="#4285F4"/>
<path d="M181.787 25.9361C185.231 25.9361 188.142 24.7835 190.255 22.8023L186.136 19.5604C184.982 20.3528 183.509 20.8031 181.787 20.8031C178.449 20.8031 175.627 18.5157 174.615 15.4539H170.372V18.8039C172.538 23.1805 176.958 25.9361 181.787 25.9361Z" fill="#34A853"/>
<path d="M174.615 15.4539C174.082 13.851 174.082 12.1039 174.615 10.4829V7.15095H170.372C168.543 10.8071 168.543 15.1297 170.372 18.7858L174.615 15.4539Z" fill="#FBBC04"/>
<path d="M181.787 5.13382C183.615 5.0978 185.373 5.80022 186.687 7.07898L190.344 3.36878C188.018 1.17148 184.965 -0.0352375 181.787 0.000783842C176.958 0.000783842 172.537 2.77436 170.372 7.15095L174.615 10.501C175.627 7.42118 178.449 5.13382 181.787 5.13382Z" fill="#EA4335"/>
<path fill-rule="evenodd" clip-rule="evenodd" d="M537.181 5.09457C536.06 6.42931 534.268 7.48207 532.476 7.33167C532.252 5.52695 533.129 3.60944 534.156 2.42509C535.276 1.05275 537.237 0.0751966 538.824 0C539.01 1.87992 538.282 3.72223 537.181 5.09457ZM538.805 7.68887C537.226 7.59737 535.785 8.16703 534.621 8.62716C533.872 8.92326 533.238 9.17401 532.756 9.17401C532.214 9.17401 531.554 8.90985 530.812 8.61327C529.841 8.22465 528.73 7.78034 527.565 7.80167C524.895 7.83927 522.412 9.362 521.049 11.7871C518.249 16.6373 520.321 23.8185 523.028 27.7664C524.354 29.7215 525.941 31.8646 528.032 31.7894C528.952 31.7544 529.614 31.4717 530.299 31.1791C531.087 30.8422 531.906 30.4922 533.185 30.4922C534.42 30.4922 535.203 30.8331 535.955 31.1602C536.67 31.4713 537.356 31.7701 538.376 31.7518C540.541 31.7142 541.904 29.7967 543.23 27.8415C544.66 25.7432 545.289 23.6953 545.385 23.3845L545.393 23.3584L545.396 23.3486C545.393 23.3463 545.376 23.3381 545.345 23.3237C544.866 23.1033 541.211 21.4185 541.176 16.9005C541.141 13.1083 544.075 11.1869 544.537 10.8844C544.565 10.8662 544.584 10.8536 544.593 10.8471C542.726 8.06486 539.813 7.76407 538.805 7.68887ZM553.798 31.5451V2.23721H564.72C570.359 2.23721 574.298 6.14743 574.298 11.8624C574.298 17.5773 570.284 21.5251 564.571 21.5251H558.316V31.5451H553.798ZM558.316 6.07205H563.525C567.446 6.07205 569.686 8.17755 569.686 11.881C569.686 15.5844 567.446 17.7087 563.506 17.7087H558.316V6.07205ZM589.216 28.0294C588.021 30.3229 585.389 31.7704 582.551 31.7704C578.35 31.7704 575.418 29.2513 575.418 25.4539C575.418 21.6941 578.256 19.5322 583.503 19.2126L589.141 18.8742V17.2575C589.141 14.87 587.592 13.5728 584.828 13.5728C582.551 13.5728 580.889 14.7572 580.553 16.5619H576.483C576.613 12.7645 580.161 10.001 584.959 10.001C590.131 10.001 593.492 12.7269 593.492 16.9567V31.5448H589.309V28.0294H589.216ZM583.764 28.2927C581.355 28.2927 579.824 27.1271 579.824 25.3412C579.824 23.4989 581.299 22.4274 584.119 22.2582L589.141 21.9386V23.5929C589.141 26.3376 586.826 28.2927 583.764 28.2927ZM607.364 32.6918C605.553 37.824 603.48 39.5159 599.074 39.5159C598.738 39.5159 597.618 39.4783 597.356 39.4031V35.8877C597.636 35.9253 598.327 35.9629 598.682 35.9629C600.68 35.9629 601.8 35.1169 602.491 32.9174L602.902 31.6203L595.247 10.2833H599.97L605.291 27.5973H605.385L610.706 10.2833H615.299L607.364 32.6918Z" fill="black"/>
<path d="M64.6518 88.082H64.717C65.1079 88.082 65.3359 88.3752 65.3359 88.7661V106.324C65.3359 106.617 65.1079 106.943 64.717 106.943C64.4238 106.943 64.0981 106.714 64.0981 106.324V88.7009C64.0981 88.3752 64.3261 88.082 64.6518 88.082ZM47.9412 88.9941H59.4399C59.8308 88.9941 60.0589 89.385 60.0589 89.6782C60.0589 89.9713 59.8308 90.2971 59.4399 90.2971H48.5602V97.6263H58.3976C58.6907 97.6263 59.0165 97.8543 59.0165 98.2452C59.0165 98.5384 58.7885 98.8641 58.3976 98.8641H48.6579V106.421C48.5927 106.812 48.267 107.105 47.9087 107.105C47.5178 107.105 47.2246 106.812 47.2246 106.421V89.7107H47.2898C47.2806 89.6199 47.2907 89.5281 47.3193 89.4414C47.3479 89.3547 47.3945 89.2749 47.4559 89.2074C47.5173 89.1398 47.5923 89.0859 47.6759 89.0491C47.7595 89.0124 47.8499 88.9937 47.9412 88.9941ZM81.3298 94.434C81.3298 94.0431 81.0367 93.8151 80.7109 93.8151C80.32 93.8151 80.092 94.1083 80.092 94.434V101.763C80.092 104.271 78.0398 106.226 75.5316 106.161C72.8605 106.161 71.3295 104.434 71.3295 101.698V94.434C71.3295 94.0431 71.0364 93.8151 70.7106 93.8151C70.4175 93.8151 70.0917 94.1083 70.0917 94.434V101.926C70.0917 105.021 72.0787 107.301 75.3362 107.301C77.3232 107.366 79.2125 106.324 80.1246 104.565V106.454C80.1246 106.845 80.4177 107.073 80.7435 107.073C81.1344 107.073 81.3624 106.78 81.3624 106.454H81.2972V94.434H81.3298ZM92.8937 94.5317C92.8937 94.8249 92.6005 95.0529 92.2748 95.0529H88.0727V103.457C88.0727 105.346 89.1476 106.03 90.7438 106.03C91.265 106.03 91.8187 105.965 92.2748 105.802C92.5679 105.802 92.7959 106.03 92.7959 106.324C92.7959 106.552 92.6331 106.78 92.4051 106.845C91.7861 107.073 91.1021 107.138 90.5158 107.138C88.5287 107.138 86.8674 105.998 86.8674 103.587V95.0529H85.4342C85.141 95.0529 84.8153 94.7597 84.8153 94.434C84.8153 94.1408 85.1084 93.9128 85.4342 93.9128H86.8674V90.2971C86.8674 90.0039 87.0955 89.6782 87.3886 89.6782H87.4538C87.7469 89.6782 88.0727 89.9713 88.0727 90.2971V93.9128H92.2748C92.6005 93.9128 92.8937 94.206 92.8937 94.5317ZM102.666 95.0529C102.959 95.0529 103.285 94.8249 103.285 94.5317C103.285 94.2386 102.992 93.9128 102.666 93.9128H98.4639V90.2971C98.4639 90.0039 98.1707 89.6782 97.845 89.6782H97.7798C97.4866 89.6782 97.2586 89.9713 97.2586 90.2971V93.9128H95.8253C95.5322 93.9128 95.2064 94.1408 95.2064 94.434C95.2064 94.7272 95.4996 95.0529 95.8253 95.0529H97.2586V103.587C97.2586 105.998 98.9199 107.138 100.907 107.138C101.526 107.138 102.21 107.073 102.796 106.845C103.024 106.78 103.187 106.552 103.187 106.324C103.187 106.03 102.959 105.802 102.666 105.802C102.21 105.965 101.689 106.03 101.135 106.03C99.5388 106.03 98.4639 105.346 98.4639 103.457V95.0529H102.666ZM105.565 100.428C105.565 96.5839 108.236 93.5545 111.819 93.5545C115.565 93.5545 117.911 96.5839 117.911 100.428C117.911 100.721 117.618 101.047 117.292 101.047L106.933 101.047C107.161 104.304 109.539 106.193 112.112 106.193C113.709 106.193 115.305 105.509 116.38 104.369C116.445 104.304 116.608 104.206 116.771 104.206C117.064 104.206 117.389 104.499 117.389 104.825C117.389 104.988 117.324 105.118 117.161 105.281C115.858 106.714 113.969 107.464 112.047 107.399C108.529 107.399 105.565 104.662 105.565 100.525V100.428ZM122.862 97.6914C123.709 95.509 125.761 93.9128 128.106 93.7499C128.497 93.7499 128.79 94.0431 128.79 94.4992C128.79 94.7923 128.562 95.1832 128.172 95.1832H128.106C125.272 95.4764 122.862 97.5286 122.862 101.763V106.617C122.797 107.008 122.569 107.236 122.178 107.236C121.885 107.236 121.559 106.943 121.559 106.617V94.4992C121.624 94.1083 121.852 93.8802 122.243 93.8802C122.536 93.8802 122.862 94.1734 122.862 94.4992V97.6914ZM148.889 93.0659C147.977 93.0659 147.227 93.6848 146.999 94.5643L144.784 101.6L142.569 94.5643C142.341 93.6522 141.494 92.9682 140.517 92.9682H140.289C139.312 92.9682 138.465 93.5871 138.237 94.5643L136.022 101.535L133.905 94.4992C133.677 93.6522 132.927 93.0007 132.015 93.0007H131.95C130.973 93.0007 130.191 93.8477 130.191 94.8249C130.191 95.1181 130.256 95.4438 130.354 95.737L133.774 105.509C134.002 106.486 134.849 107.171 135.892 107.236H136.055C137.032 107.236 137.879 106.552 138.172 105.574L140.387 98.6035L142.602 105.574C142.83 106.552 143.742 107.236 144.719 107.236H144.882C145.957 107.236 146.869 106.552 147.097 105.509L150.517 95.6718C150.583 95.4438 150.68 95.1506 150.68 94.9226V94.8575C150.648 93.8477 149.899 93.0659 148.889 93.0659ZM154.231 93.7499C155.664 93.2939 157.13 93.0007 158.661 93.0659C160.778 93.0659 162.309 93.6848 163.449 94.662C164.524 95.8673 165.046 97.4634 164.98 99.0595V105.249C164.98 106.324 164.133 107.138 163.091 107.138C162.114 107.138 161.267 106.454 161.202 105.477C160.127 106.617 158.596 107.301 157 107.203C154.492 107.203 152.276 105.705 152.276 102.968C152.276 99.9391 154.557 98.5058 157.847 98.5058C158.987 98.5058 160.127 98.6687 161.202 99.027V98.7989C161.202 97.1377 160.225 96.2907 158.238 96.2907C157.325 96.2907 156.413 96.3559 155.501 96.6816C155.338 96.7468 155.11 96.7468 154.98 96.7468C154.068 96.8119 153.319 96.1279 153.319 95.2484C153.254 94.5969 153.612 93.978 154.231 93.7499ZM176.707 94.3689C176.935 93.5219 177.684 93.0007 178.531 93.0007C179.606 93.0007 180.421 93.8477 180.421 94.8249V94.89C180.421 95.1832 180.355 95.509 180.193 95.8021L176.088 105.574C175.697 106.552 174.785 107.171 173.808 107.236H173.58C172.505 107.171 171.691 106.486 171.365 105.509L167.098 95.737C166.935 95.4438 166.87 95.1181 166.87 94.8249C166.935 93.7499 167.782 93.0007 168.759 93.0007C169.671 93.0007 170.42 93.6196 170.648 94.434L173.613 102.382L176.707 94.3689ZM181.984 100.721C182.147 104.499 185.404 107.464 189.216 107.236C190.975 107.236 192.636 106.714 194.004 105.574C194.395 105.281 194.525 104.89 194.525 104.434V104.369C194.525 103.522 193.841 102.871 192.994 102.871C192.701 102.871 192.31 102.936 192.082 103.164C191.235 103.783 190.258 104.141 189.248 104.076C187.587 104.141 186.121 103.001 185.893 101.34H193.743C194.721 101.275 195.502 100.428 195.405 99.4504V99.1573C195.405 95.737 192.44 92.8704 188.792 92.9682C184.753 92.9682 181.919 96.2256 181.919 100.167V100.721H181.984Z" fill="#10112B"/>
<path d="M106.835 99.8086C107.063 96.9421 109.116 94.7271 111.722 94.7271C114.686 94.7271 116.282 97.1375 116.445 99.8086H106.835ZM161.234 102.089C161.234 103.587 159.931 104.499 158.107 104.434C156.902 104.434 155.99 103.815 155.99 102.773V102.708C155.99 101.568 157.065 100.818 158.726 100.818C159.573 100.818 160.485 101.046 161.234 101.34V102.089ZM188.825 96.0952C187.229 96.0952 186.154 97.2353 185.861 99.0594H191.724C191.496 97.3004 190.421 96.0952 188.825 96.0952Z" fill="white"/>
<path d="M27.5499 79.3847C44.6839 76.8113 33.7064 91.4046 28.3968 95.5089C32.0451 98.3103 35.7912 102.252 37.3873 106.714C40.3515 114.891 33.0549 116.096 27.5499 114.044C21.5236 111.926 16.214 107.399 12.696 102.089C11.7188 102.089 10.6439 101.926 9.63405 101.633C11.6211 107.236 12.468 112.969 11.9142 117.659C11.9142 108.213 7.41901 98.8315 0.936738 91.0137C-1.34346 88.2774 1.00188 86.2578 3.05406 88.8964C4.45475 90.8182 5.72515 92.8053 6.86525 94.8574C9.11287 87.1699 20.0578 80.4596 27.5499 79.3847ZM25.1068 93.2939C28.462 91.2417 38.6577 80.2968 29.146 81.274C23.6735 81.8929 17.0284 86.9419 14.2922 90.1993C18.1033 89.7433 21.9797 91.4046 25.1068 93.2939ZM15.6603 101.796C18.7223 105.216 22.8918 108.539 27.387 109.744C29.9929 110.428 32.8595 110.135 31.8171 106.421C30.7421 103.001 28.0059 100.004 25.3348 97.724C24.5856 98.2452 23.7387 98.7989 22.8918 99.1572C20.6116 100.428 18.1685 101.34 15.6603 101.796Z" fill="#EBA12A"/>
<path d="M14.1946 92.6098C16.8005 92.3817 19.6019 93.7499 21.7518 95.118C19.6996 96.0952 17.4194 96.7141 15.0415 96.8444C11.556 96.877 10.8394 92.9355 14.1946 92.6098Z" fill="white"/>
<path d="M641.246 81.9292H618.808C618.055 81.9292 617.413 82.5711 617.413 83.3525V85.892C617.413 86.6735 618.055 87.3153 618.808 87.3153H641.246C642.027 87.3153 642.641 86.6735 642.669 85.892V83.3804C642.669 82.5711 642.027 81.9292 641.246 81.9292ZM641.246 96.0224H618.808C618.446 96.0224 618.083 96.162 617.832 96.441C617.553 96.7201 617.413 97.055 617.413 97.4457V99.9853C617.413 100.767 618.055 101.409 618.808 101.409H641.246C642.027 101.409 642.641 100.795 642.669 99.9853V97.4457C642.641 96.6364 642.027 96.0224 641.246 96.0224ZM631.45 103.055H618.808C618.446 103.055 618.083 103.195 617.832 103.474C617.581 103.753 617.413 104.088 617.413 104.478V107.018C617.413 107.799 618.055 108.441 618.808 108.441H631.423C632.204 108.441 632.818 107.799 632.818 107.046V104.506C632.846 103.669 632.232 103.027 631.45 103.055ZM642.669 88.9619H618.808C618.446 88.9619 618.083 89.1014 617.832 89.3805C617.581 89.6595 617.413 89.9944 617.413 90.3851V92.9247C617.413 93.7061 618.055 94.348 618.808 94.348H642.641C643.423 94.348 644.037 93.7061 644.037 92.9247V90.3851C644.065 89.6037 643.423 88.9898 642.669 88.9619Z" fill="#00C3F7"/>
<path d="M668.763 87.6222C668.065 86.8966 667.256 86.3384 666.335 85.9477C665.414 85.557 664.437 85.3617 663.432 85.3617C662.456 85.3338 661.507 85.557 660.614 85.9756C660.028 86.2547 659.497 86.6454 659.051 87.1198V86.6733C659.051 86.4501 658.967 86.2268 658.828 86.0594C658.688 85.8919 658.465 85.7803 658.214 85.7803H655.116C654.893 85.7803 654.669 85.864 654.53 86.0594C654.362 86.2268 654.279 86.4501 654.307 86.6733V107.548C654.307 107.771 654.39 107.995 654.53 108.162C654.697 108.329 654.893 108.413 655.116 108.413H658.297C658.521 108.413 658.716 108.329 658.883 108.162C659.051 108.022 659.162 107.799 659.135 107.548V100.404C659.581 100.906 660.167 101.269 660.809 101.492C661.646 101.799 662.511 101.967 663.404 101.967C664.409 101.967 665.414 101.771 666.335 101.381C667.256 100.99 668.093 100.432 668.79 99.7061C669.516 98.9526 670.074 98.0595 670.465 97.0828C670.911 95.9944 671.107 94.8223 671.079 93.6502C671.107 92.4781 670.884 91.3059 670.465 90.1897C670.046 89.2687 669.488 88.3757 668.763 87.6222ZM665.916 95.1851C665.749 95.6316 665.497 96.0223 665.163 96.3851C664.521 97.0828 663.6 97.4735 662.651 97.4735C662.176 97.4735 661.702 97.3898 661.255 97.1665C660.837 96.9711 660.446 96.72 660.111 96.3851C659.776 96.0502 659.525 95.6316 659.358 95.1851C658.995 94.2362 658.995 93.2037 659.358 92.2548C659.525 91.8083 659.804 91.4176 660.111 91.0827C660.446 90.7478 660.837 90.4687 661.255 90.2734C661.702 90.078 662.176 89.9664 662.651 89.9664C663.153 89.9664 663.6 90.0501 664.074 90.2734C664.493 90.4687 664.883 90.7199 665.19 91.0548C665.525 91.3897 665.749 91.7804 665.944 92.2269C666.279 93.2037 666.251 94.2362 665.916 95.1851ZM688.13 85.8082H684.977C684.754 85.8082 684.53 85.8919 684.391 86.0594C684.223 86.2268 684.14 86.4501 684.14 86.7012V87.0919C683.749 86.6175 683.247 86.2547 682.716 86.0035C681.851 85.5849 680.902 85.3896 679.953 85.3896C677.916 85.3896 675.991 86.1989 674.539 87.6222C673.786 88.3757 673.2 89.2687 672.809 90.2455C672.363 91.3339 672.139 92.506 672.167 93.706C672.139 94.8781 672.363 96.0502 672.809 97.1665C673.228 98.1433 673.786 99.0363 674.539 99.7898C675.963 101.241 677.916 102.05 679.926 102.05C680.874 102.078 681.823 101.855 682.688 101.436C683.219 101.157 683.749 100.794 684.14 100.348V100.767C684.14 100.99 684.223 101.213 684.391 101.381C684.558 101.52 684.754 101.632 684.977 101.632H688.13C688.354 101.632 688.577 101.548 688.716 101.381C688.884 101.213 688.968 100.99 688.968 100.767V86.7291C688.968 86.5059 688.884 86.2826 688.744 86.1152C688.577 85.9198 688.354 85.8082 688.13 85.8082ZM683.86 95.1851C683.693 95.6316 683.442 96.0223 683.107 96.3851C682.772 96.72 682.409 96.9991 681.991 97.1944C681.098 97.613 680.065 97.613 679.172 97.1944C678.753 96.9991 678.363 96.72 678.028 96.3851C677.693 96.0502 677.442 95.6316 677.274 95.1851C676.939 94.2362 676.939 93.2037 677.274 92.2548C677.442 91.8083 677.693 91.4455 678.028 91.0827C678.363 90.7478 678.726 90.4687 679.172 90.2734C680.065 89.8548 681.098 89.8548 681.963 90.2734C682.381 90.4687 682.772 90.7199 683.079 91.0548C683.386 91.3897 683.637 91.7804 683.833 92.2269C684.223 93.2037 684.223 94.2362 683.86 95.1851ZM719.554 93.2874C719.107 92.8967 718.577 92.5618 718.019 92.3385C717.433 92.0874 716.791 91.9199 716.177 91.7804L713.777 91.3059C713.163 91.1943 712.717 91.0269 712.493 90.8315C712.298 90.692 712.159 90.4687 712.159 90.2176C712.159 89.9664 712.298 89.7431 712.605 89.5478C713.024 89.3245 713.47 89.2129 713.945 89.2408C714.559 89.2408 715.173 89.3803 715.731 89.6036C716.289 89.8548 716.819 90.1059 717.321 90.4408C718.019 90.8873 718.633 90.8036 719.052 90.3013L720.196 88.9896C720.419 88.7664 720.531 88.4873 720.559 88.1803C720.531 87.8454 720.363 87.5664 720.112 87.3431C719.638 86.9245 718.856 86.478 717.824 86.0315C716.791 85.5849 715.48 85.3617 713.945 85.3617C712.996 85.3338 712.075 85.4733 711.182 85.7524C710.428 86.0035 709.703 86.3663 709.061 86.8408C708.475 87.2873 708.028 87.8454 707.693 88.5152C707.386 89.1571 707.219 89.8548 707.219 90.5525C707.219 91.8641 707.61 92.9246 708.391 93.706C709.172 94.4874 710.205 95.0176 711.489 95.2688L714 95.8269C714.531 95.9107 715.089 96.0781 715.591 96.3293C715.87 96.4409 716.038 96.72 716.038 97.027C716.038 97.306 715.898 97.5572 715.591 97.7805C715.284 98.0037 714.782 98.1433 714.112 98.1433C713.442 98.1433 712.745 98.0037 712.131 97.6967C711.545 97.4177 711.014 97.0549 710.512 96.6363C710.289 96.4688 710.065 96.3293 709.786 96.2176C709.507 96.1339 709.145 96.2176 708.782 96.5246L707.414 97.5572C707.024 97.8363 706.828 98.3107 706.94 98.7572C707.024 99.2316 707.386 99.6782 708.084 100.208C709.814 101.381 711.879 101.994 713.973 101.939C714.949 101.939 715.926 101.827 716.847 101.548C717.656 101.297 718.41 100.934 719.08 100.432C719.694 99.9851 720.196 99.3991 720.531 98.7014C720.866 98.0316 721.033 97.306 721.033 96.5525C721.061 95.8828 720.921 95.213 720.642 94.599C720.363 94.1525 720.001 93.6781 719.554 93.2874ZM733.34 97.1107C733.201 96.8595 732.95 96.6921 732.643 96.6363C732.363 96.6363 732.057 96.72 731.833 96.8874C731.443 97.1386 730.996 97.2781 730.55 97.306C730.41 97.306 730.243 97.2781 730.103 97.2502C729.936 97.2223 729.796 97.1386 729.684 97.027C729.545 96.8874 729.433 96.72 729.349 96.5525C729.238 96.2735 729.182 95.9944 729.21 95.7153V89.9943H733.284C733.536 89.9943 733.759 89.8827 733.926 89.7152C734.094 89.5478 734.205 89.3524 734.205 89.1013V86.6733C734.205 86.4222 734.122 86.1989 733.926 86.0594C733.759 85.8919 733.536 85.8082 733.312 85.8082H729.21V81.9012C729.21 81.6779 729.126 81.4267 728.959 81.2872C728.791 81.1477 728.596 81.0639 728.373 81.036H725.191C724.968 81.036 724.745 81.1198 724.577 81.2872C724.41 81.4546 724.298 81.6779 724.298 81.9012V85.8082H722.484C722.261 85.8082 722.038 85.8919 721.87 86.0873C721.731 86.2547 721.647 86.478 721.647 86.7012V89.1292C721.647 89.3524 721.731 89.5757 721.87 89.7431C722.01 89.9385 722.233 90.0222 722.484 90.0222H724.298V96.8316C724.27 97.6409 724.438 98.4502 724.773 99.1758C725.08 99.7898 725.47 100.32 726.001 100.767C726.503 101.185 727.089 101.492 727.731 101.66C728.373 101.855 729.043 101.967 729.712 101.967C730.577 101.967 731.47 101.827 732.308 101.548C733.089 101.297 733.787 100.85 734.345 100.264C734.708 99.9014 734.736 99.3154 734.457 98.8968L733.34 97.1107ZM750.587 85.8082H747.433C747.21 85.8082 747.015 85.8919 746.847 86.0594C746.68 86.2268 746.596 86.4501 746.596 86.7012V87.0919C746.206 86.6175 745.731 86.2547 745.173 86.0035C744.308 85.5849 743.359 85.3896 742.41 85.3896C740.373 85.3896 738.447 86.1989 736.996 87.6222C736.243 88.3757 735.657 89.2687 735.266 90.2455C734.819 91.3339 734.596 92.506 734.624 93.6781C734.596 94.8502 734.819 96.0223 735.266 97.1386C735.657 98.1154 736.271 99.0084 736.996 99.7619C738.419 101.213 740.345 102.022 742.382 102.022C743.331 102.05 744.28 101.827 745.145 101.436C745.703 101.157 746.206 100.794 746.596 100.348V100.767C746.596 100.99 746.68 101.213 746.847 101.353C747.015 101.52 747.21 101.604 747.433 101.604H750.587C751.061 101.604 751.424 101.241 751.424 100.767V86.7291C751.424 86.5059 751.341 86.2826 751.201 86.1152C751.061 85.9198 750.838 85.8082 750.587 85.8082ZM746.345 95.1851C746.178 95.6316 745.926 96.0223 745.592 96.3851C745.257 96.72 744.894 96.9991 744.475 97.1944C744.029 97.3898 743.554 97.5014 743.052 97.5014C742.55 97.5014 742.103 97.3898 741.657 97.1944C741.238 96.9991 740.847 96.72 740.512 96.3851C740.178 96.0502 739.926 95.6316 739.787 95.1851C739.452 94.2362 739.452 93.2037 739.787 92.2548C739.954 91.8083 740.205 91.4176 740.512 91.0827C740.847 90.7478 741.238 90.4687 741.657 90.2734C742.103 90.078 742.578 89.9664 743.052 89.9664C743.526 89.9664 744.001 90.0501 744.475 90.2734C744.894 90.4687 745.257 90.7199 745.592 91.0548C745.926 91.3897 746.178 91.7804 746.345 92.2269C746.708 93.1757 746.708 94.2362 746.345 95.1851ZM767.89 96.8874L766.076 95.4921C765.741 95.213 765.406 95.1293 765.127 95.2409C764.876 95.3525 764.652 95.52 764.457 95.7153C764.066 96.1897 763.592 96.6084 763.09 96.9711C762.531 97.2781 761.945 97.4456 761.331 97.3898C760.606 97.3898 759.936 97.1944 759.35 96.7758C758.764 96.3572 758.317 95.799 758.094 95.1014C757.927 94.6269 757.843 94.1525 757.843 93.6781C757.843 93.1757 757.927 92.7013 758.094 92.199C758.262 91.7525 758.485 91.3618 758.82 91.0269C759.155 90.692 759.517 90.4129 759.936 90.2455C760.382 90.0501 760.857 89.9385 761.359 89.9385C761.973 89.9106 762.587 90.078 763.117 90.385C763.648 90.7199 764.094 91.1385 764.485 91.6408C764.652 91.8362 764.876 92.0036 765.127 92.1153C765.406 92.2269 765.741 92.1432 766.076 91.8641L767.89 90.4966C768.113 90.3571 768.28 90.1338 768.364 89.8827C768.476 89.6036 768.448 89.2966 768.28 89.0455C767.583 87.9571 766.634 87.064 765.49 86.4222C764.29 85.7524 762.866 85.3896 761.276 85.3896C760.159 85.3896 759.043 85.6128 757.982 86.0315C756.978 86.4501 756.085 87.0361 755.331 87.7896C754.578 88.5431 753.964 89.4362 753.545 90.4408C752.68 92.5339 752.68 94.8781 753.545 96.9711C753.964 97.9479 754.55 98.8688 755.331 99.5944C756.922 101.157 759.043 101.994 761.276 101.994C762.866 101.994 764.29 101.632 765.49 100.962C766.634 100.32 767.611 99.427 768.308 98.3107C768.448 98.0595 768.476 97.7526 768.392 97.5014C768.28 97.2781 768.113 97.0549 767.89 96.8874ZM784.69 100.153L779.694 92.8409L783.964 87.2036C784.16 86.9524 784.243 86.5896 784.132 86.2826C784.048 86.0594 783.853 85.8361 783.322 85.8361H779.946C779.75 85.8361 779.555 85.8919 779.387 85.9756C779.164 86.0873 778.997 86.2547 778.885 86.4501L775.48 91.2222H774.671V79.9476C774.671 79.7244 774.587 79.5011 774.42 79.3337C774.252 79.1662 774.057 79.0825 773.834 79.0825H770.68C770.457 79.0825 770.234 79.1662 770.066 79.3337C769.899 79.5011 769.815 79.6965 769.815 79.9476V100.739C769.815 100.99 769.899 101.185 770.066 101.353C770.234 101.52 770.457 101.604 770.68 101.604H773.834C774.057 101.604 774.28 101.52 774.42 101.353C774.587 101.185 774.671 100.962 774.671 100.739V95.2409H775.564L779.276 100.934C779.499 101.353 779.918 101.604 780.364 101.604H783.908C784.439 101.604 784.662 101.353 784.774 101.129C784.913 100.794 784.885 100.432 784.69 100.153ZM706.047 85.8082H702.503C702.224 85.8082 701.972 85.8919 701.777 86.0873C701.61 86.2547 701.498 86.4501 701.442 86.6733L698.819 96.3851H698.177L695.386 86.6733C695.33 86.478 695.247 86.2826 695.107 86.0873C694.94 85.8919 694.716 85.7803 694.465 85.7803H690.865C690.391 85.7803 690.112 85.9198 689.972 86.2547C689.888 86.5338 689.888 86.8408 689.972 87.1198L694.437 100.794C694.521 100.99 694.605 101.213 694.772 101.353C694.94 101.52 695.191 101.604 695.442 101.604H697.34L697.172 102.05L696.754 103.306C696.614 103.697 696.391 104.032 696.056 104.283C695.749 104.506 695.386 104.646 694.996 104.618C694.661 104.618 694.354 104.534 694.047 104.422C693.74 104.283 693.461 104.115 693.209 103.92C692.986 103.753 692.707 103.669 692.4 103.669H692.372C692.037 103.697 691.73 103.864 691.563 104.171L690.447 105.818C690 106.543 690.251 106.99 690.53 107.241C691.144 107.799 691.842 108.218 692.623 108.469C693.489 108.776 694.382 108.916 695.275 108.916C696.893 108.916 698.233 108.469 699.265 107.604C700.326 106.655 701.135 105.427 701.526 104.032L706.717 87.1198C706.828 86.8129 706.856 86.5059 706.745 86.2268C706.717 86.0315 706.521 85.8082 706.047 85.8082Z" fill="#011B33"/>
<g clip-path="url(#clip0_17895_18026)">
<path d="M469.63 59.3768C437.481 59.3768 412.851 50.2113 392.023 30C371.199 50.2113 346.57 59.3768 314.425 59.3768C314.425 112.01 303.51 187.405 392.023 218.021C480.536 187.405 469.63 112.01 469.63 59.3768Z" fill="#F7941E"/>
<path d="M434.898 87.6215C434.898 91.5844 431.681 94.7952 427.71 94.7952H400.078V167.289C400.078 171.797 396.414 175.454 391.896 175.454C387.378 175.454 383.714 171.797 383.714 167.289V94.7952H356.082C352.111 94.7952 348.894 91.5844 348.894 87.6215C348.894 83.6586 352.111 80.4478 356.082 80.4478H427.705C431.676 80.4478 434.898 83.6586 434.898 87.6215Z" fill="white"/>
</g>
<defs>
<clipPath id="clip0_17895_18026">
<rect width="156.058" height="188.021" fill="white" transform="translate(314 30)"/>
</clipPath>
</defs>
</svg>
