<svg width="24" height="24" viewBox="0 0 24 24" fill="none" xmlns="http://www.w3.org/2000/svg">
<path d="M13.5 21V13.5C13.5 13.0858 13.8358 12.75 14.25 12.75H17.25C17.6642 12.75 18 13.0858 18 13.5V21M13.5 21H2.36088M13.5 21H18M18 21H21.6391M20.25 21V9.34877M3.75 21V9.34902M3.75 9.34902C4.89729 10.0122 6.38977 9.85295 7.37132 8.8714C7.41594 8.82678 7.45886 8.78111 7.50008 8.73446C8.04979 9.35722 8.85402 9.75 9.75 9.75C10.646 9.75 11.4503 9.35718 12 8.73436C12.5497 9.35718 13.354 9.75 14.25 9.75C15.1459 9.75 15.9501 9.35727 16.4998 8.73457C16.541 8.78115 16.5838 8.82676 16.6284 8.87132C17.61 9.85294 19.1027 10.0121 20.25 9.34877M3.75 9.34902C3.52788 9.22064 3.31871 9.06143 3.12868 8.8714C1.95711 7.69983 1.95711 5.80034 3.12868 4.62876L4.31797 3.43948C4.59927 3.15817 4.9808 3.00014 5.37863 3.00014H18.6212C19.019 3.00014 19.4005 3.15817 19.6818 3.43948L20.871 4.62868C22.0426 5.80025 22.0426 7.69974 20.871 8.87132C20.6811 9.06127 20.472 9.22042 20.25 9.34877M6.75 18H10.5C10.9142 18 11.25 17.6642 11.25 17.25V13.5C11.25 13.0858 10.9142 12.75 10.5 12.75H6.75C6.33579 12.75 6 13.0858 6 13.5V17.25C6 17.6642 6.33579 18 6.75 18Z" stroke="#333333" stroke-width="1.5" stroke-linecap="round" stroke-linejoin="round"/>
</svg>
