<svg width="44" height="44" viewBox="0 0 44 44" fill="none" xmlns="http://www.w3.org/2000/svg">
<rect width="44" height="44" rx="22" fill="#F2F2F2"/>
<rect x="8" y="8" width="28" height="28" rx="14" fill="#E94F54"/>
<path fill-rule="evenodd" clip-rule="evenodd" d="M22 30C26.4183 30 30 26.4183 30 22C30 17.5817 26.4183 14 22 14C17.5817 14 14 17.5817 14 22C14 26.4183 17.5817 30 22 30ZM20.2803 19.2197C19.9874 18.9268 19.5126 18.9268 19.2197 19.2197C18.9268 19.5126 18.9268 19.9874 19.2197 20.2803L20.9393 22L19.2197 23.7197C18.9268 24.0126 18.9268 24.4874 19.2197 24.7803C19.5126 25.0732 19.9874 25.0732 20.2803 24.7803L22 23.0607L23.7197 24.7803C24.0126 25.0732 24.4874 25.0732 24.7803 24.7803C25.0732 24.4874 25.0732 24.0126 24.7803 23.7197L23.0607 22L24.7803 20.2803C25.0732 19.9874 25.0732 19.5126 24.7803 19.2197C24.4874 18.9268 24.0126 18.9268 23.7197 19.2197L22 20.9393L20.2803 19.2197Z" fill="white"/>
</svg>
